<svg xmlns="http://www.w3.org/2000/svg" width="1200" height="1200" viewBox="0 0 1200 1200">
  <defs>
    <linearGradient id="bg" x1="0" y1="0" x2="1" y2="1">
      <stop offset="0" stop-color="#0b1b2b"/>
      <stop offset="0.6" stop-color="#06111c"/>
      <stop offset="1" stop-color="#081521"/>
    </linearGradient>
    <radialGradient id="glow" cx="0.82" cy="0.30" r="0.7">
      <stop offset="0" stop-color="#0a84ff" stop-opacity="0.30"/>
      <stop offset="1" stop-color="#0a84ff" stop-opacity="0"/>
    </radialGradient>
  </defs>
  <rect width="1200" height="1200" fill="url(#bg)"/>
  <rect width="1200" height="1200" fill="url(#glow)"/>
  <!-- content band: y 285..915 -->
  <g transform="translate(96,330)">
    <rect x="0" y="0" width="84" height="84" rx="22" fill="#0a84ff"/>
    <g transform="translate(20,20) scale(1.83)">
      <path fill="#ffffff" d="M21,16v-2l-8,-5V3.5C13,2.67 12.33,2 11.5,2S10,2.67 10,3.5V9l-8,5v2l8,-2.5V19l-2,1.5V22l3.5,-1 3.5,1v-1.5L13,19v-5.5l8,2.5z"/>
    </g>
    <text x="104" y="62" font-family="Helvetica Neue, Helvetica, Arial, sans-serif" font-size="64" font-weight="900" letter-spacing="-2" fill="#ffffff">TAFCast</text>
  </g>
  <text x="92" y="560" font-family="Helvetica Neue, Helvetica, Arial, sans-serif" font-size="104" font-weight="900" letter-spacing="-5" fill="#ffffff">The sky, briefed.</text>
  <text x="96" y="638" font-family="ui-monospace, SF Mono, Menlo, Consolas, monospace" font-size="33" letter-spacing="1" fill="#a9c1d8">METAR · TAF · 24h wind · runway crosswind · NOTAMs</text>
  <g transform="translate(96,710)">
    <rect x="0" y="0" width="250" height="58" rx="29" fill="#0a84ff"/>
    <text x="125" y="38" text-anchor="middle" font-family="Helvetica Neue, Helvetica, Arial, sans-serif" font-size="26" font-weight="800" fill="#06111c">Free · Android</text>
    <text x="286" y="38" font-family="ui-monospace, SF Mono, Menlo, Consolas, monospace" font-size="23" letter-spacing="4" fill="#5d81a3">BY PILOTS, FOR PILOTS</text>
  </g>
  <text x="1104" y="892" text-anchor="end" font-family="ui-monospace, SF Mono, Menlo, Consolas, monospace" font-size="24" letter-spacing="2" fill="#39597a">tafcast.github.io</text>
</svg>
