<svg xmlns="http://www.w3.org/2000/svg" viewBox="0 0 512 512" width="512" height="512">
  <defs>
    <linearGradient id="bg" x1="0%" y1="0%" x2="100%" y2="100%">
      <stop offset="0%" stop-color="#183b5c"/>
      <stop offset="50%" stop-color="#0e2338"/>
      <stop offset="100%" stop-color="#071320"/>
    </linearGradient>
    <linearGradient id="planeGrad" x1="0%" y1="0%" x2="0%" y2="100%">
      <stop offset="0%" stop-color="#ffffff"/>
      <stop offset="100%" stop-color="#d9e6f2"/>
    </linearGradient>
    <filter id="shadow" x="-20%" y="-20%" width="140%" height="140%">
      <feDropShadow dx="0" dy="12" stdDeviation="16" flood-color="#000000" flood-opacity="0.5"/>
    </filter>
  </defs>
  <rect width="512" height="512" rx="112" fill="url(#bg)"/>
  <rect width="510" height="510" x="1" y="1" rx="111" fill="none" stroke="rgba(255,255,255,0.12)" stroke-width="2"/>
  <g transform="translate(106, 106) scale(12.5)" filter="url(#shadow)">
    <path fill="url(#planeGrad)" d="M21,16v-2l-8,-5V3.5C13,2.67 12.33,2 11.5,2S10,2.67 10,3.5V9l-8,5v2l8,-2.5V19l-2,1.5V22l3.5,-1 3.5,1v-1.5L13,19v-5.5l8,2.5z"/>
  </g>
</svg>
